<?xml version="1.0" encoding="UTF-8" ?>
<!DOCTYPE svg PUBLIC "-//W3C//DTD SVG 1.1//EN" "http://www.w3.org/Graphics/SVG/1.1/DTD/svg11.dtd">
<svg viewBox="0 0 232 68" version="1.1" xmlns="http://www.w3.org/2000/svg">
<g id="#0054a6ff">
<path fill="#0054a6" opacity="1.00" d=" M 20.53 2.78 C 30.64 1.63 40.93 1.68 50.98 3.30 C 58.09 4.52 63.98 10.73 64.85 17.88 C 66.39 28.53 66.39 39.40 64.86 50.04 C 63.98 57.55 57.57 63.96 50.07 64.85 C 40.80 66.20 31.35 66.34 22.03 65.38 C 18.38 64.99 14.54 64.61 11.38 62.56 C 6.97 59.89 3.79 55.22 3.14 50.09 C 1.57 39.15 1.56 27.96 3.30 17.04 C 4.62 8.88 12.41 2.91 20.53 2.78 M 20.00 12.00 C 20.00 26.25 20.00 40.50 20.00 54.75 C 22.33 54.75 24.67 54.75 27.00 54.75 C 27.00 48.42 27.00 42.08 27.00 35.75 C 34.00 35.75 41.00 35.75 48.00 35.75 C 48.00 33.75 48.00 31.75 48.00 29.75 C 41.00 29.75 34.00 29.75 27.00 29.75 C 27.00 25.83 27.00 21.92 27.00 18.00 C 34.42 18.00 41.83 18.00 49.25 18.00 C 49.25 16.00 49.25 14.00 49.25 12.00 C 39.50 12.00 29.75 12.00 20.00 12.00 Z" />
</g>
<g id="#ffffffff">
<path fill="#ffffff" opacity="1.00" d=" M 20.00 12.00 C 29.75 12.00 39.50 12.00 49.25 12.00 C 49.25 14.00 49.25 16.00 49.25 18.00 C 41.83 18.00 34.42 18.00 27.00 18.00 C 27.00 21.92 27.00 25.83 27.00 29.75 C 34.00 29.75 41.00 29.75 48.00 29.75 C 48.00 31.75 48.00 33.75 48.00 35.75 C 41.00 35.75 34.00 35.75 27.00 35.75 C 27.00 42.08 27.00 48.42 27.00 54.75 C 24.67 54.75 22.33 54.75 20.00 54.75 C 20.00 40.50 20.00 26.25 20.00 12.00 Z" />
</g>
<g id="#4a4a4aff">
<path fill="#4a4a4a" opacity="1.00" d=" M 165.00 13.78 C 166.51 13.75 168.02 13.71 169.53 13.68 C 169.49 25.89 169.48 38.10 169.53 50.32 C 168.43 50.30 166.23 50.26 165.13 50.24 C 165.25 49.24 165.38 48.24 165.51 47.25 C 162.36 52.49 153.97 51.83 151.67 46.17 C 148.66 39.71 148.56 31.18 153.63 25.70 C 157.14 22.50 163.11 23.63 165.09 28.01 C 164.93 23.27 165.02 18.53 165.00 13.78 M 154.30 36.00 C 154.36 39.13 153.99 43.07 156.71 45.28 C 158.40 46.66 160.69 45.89 162.64 45.79 C 165.85 41.66 165.93 35.81 163.82 31.17 C 163.04 29.42 161.29 27.83 159.24 28.40 C 155.54 28.74 154.28 32.85 154.30 36.00 Z" />
<path fill="#4a4a4a" opacity="1.00" d=" M 95.96 15.98 C 98.19 13.93 101.52 14.72 104.28 14.39 C 104.28 16.00 104.29 17.60 104.31 19.20 C 102.48 19.25 100.64 19.38 98.85 19.79 C 98.79 21.37 98.72 22.95 98.65 24.53 C 100.43 24.51 102.21 24.50 103.99 24.48 C 104.00 25.99 104.00 27.49 104.00 29.00 C 102.25 29.00 100.50 29.00 98.75 29.00 C 98.75 36.10 98.74 43.20 98.75 50.29 C 97.17 50.27 95.58 50.25 94.00 50.23 C 94.00 43.16 94.00 36.08 94.00 29.00 C 92.52 29.00 91.04 29.00 89.56 29.01 C 89.50 27.45 89.43 25.90 89.35 24.35 C 90.85 24.43 92.35 24.50 93.85 24.57 C 94.20 21.67 93.92 18.33 95.96 15.98 Z" />
<path fill="#4a4a4a" opacity="1.00" d=" M 175.22 18.44 C 176.82 17.64 178.41 16.84 180.00 16.03 C 180.00 18.87 180.00 21.72 180.01 24.56 C 181.55 24.50 183.10 24.43 184.65 24.35 C 184.57 25.90 184.50 27.45 184.44 29.00 C 182.96 29.00 181.48 29.00 180.00 29.00 C 180.15 34.33 179.67 39.68 180.24 44.99 C 181.47 45.35 182.72 45.59 184.00 45.71 C 184.00 47.26 183.99 48.81 183.99 50.37 C 181.39 50.37 178.81 49.96 176.42 48.92 C 174.42 42.46 175.53 35.64 175.25 29.00 C 174.33 29.00 172.48 29.00 171.55 29.00 C 171.49 27.44 171.43 25.88 171.36 24.33 C 172.68 24.42 174.00 24.51 175.32 24.60 C 175.28 22.55 175.25 20.49 175.22 18.44 Z" />
<path fill="#4a4a4a" opacity="1.00" d=" M 132.48 27.81 C 134.22 25.43 136.73 23.14 139.95 23.87 C 143.69 23.86 145.74 27.70 146.14 30.97 C 146.91 37.39 146.31 43.87 146.53 50.32 C 145.02 50.28 143.51 50.25 142.00 50.22 C 141.87 44.44 142.30 38.64 141.76 32.87 C 141.69 30.75 140.13 28.79 137.93 28.64 C 134.76 27.74 133.07 31.44 132.90 34.01 C 132.50 39.43 132.85 44.87 132.75 50.29 C 131.17 50.27 129.58 50.25 128.00 50.23 C 128.00 41.66 128.00 33.09 128.00 24.52 C 129.63 24.50 131.27 24.47 132.91 24.45 C 132.77 25.57 132.63 26.69 132.48 27.81 Z" />
<path fill="#4a4a4a" opacity="1.00" d=" M 193.23 24.23 C 197.17 22.86 201.87 24.20 204.10 27.83 C 208.25 34.00 207.86 43.14 202.60 48.56 C 198.87 52.33 191.74 51.52 189.02 46.91 C 184.14 40.04 185.10 28.19 193.23 24.23 M 193.55 29.45 C 190.22 32.54 190.42 37.74 191.33 41.83 C 191.87 44.31 194.30 45.49 196.33 46.58 C 198.53 45.61 201.07 44.46 201.66 41.87 C 202.53 38.18 202.66 33.86 200.49 30.58 C 199.05 28.27 195.60 27.49 193.55 29.45 Z" />
<path fill="#4a4a4a" opacity="1.00" d=" M 216.55 24.49 C 219.90 23.59 224.08 23.50 226.46 26.47 C 229.94 31.00 230.49 37.25 229.39 42.70 C 228.27 46.25 226.16 50.40 222.00 50.82 C 218.44 51.70 215.44 48.80 214.24 45.73 C 214.69 50.58 214.44 55.46 214.52 60.32 C 213.01 60.28 211.50 60.25 210.00 60.22 C 210.00 48.32 210.00 36.41 210.00 24.51 C 211.47 24.50 212.95 24.49 214.43 24.47 C 214.31 25.27 214.07 26.85 213.95 27.65 C 214.82 26.60 215.69 25.54 216.55 24.49 M 216.13 30.17 C 212.91 34.89 213.99 41.54 217.29 45.95 C 219.66 46.20 222.76 46.42 224.01 43.87 C 225.77 40.25 225.42 35.89 224.56 32.06 C 223.59 28.55 218.34 26.82 216.13 30.17 Z" />
<path fill="#4a4a4a" opacity="1.00" d=" M 105.70 24.48 C 107.23 24.48 108.76 24.48 110.30 24.48 C 110.36 30.13 109.95 35.82 110.47 41.45 C 110.61 43.87 112.14 46.30 114.82 46.23 C 117.67 45.62 119.53 42.69 119.68 39.91 C 119.90 34.77 119.70 29.62 119.70 24.48 C 121.23 24.48 122.77 24.48 124.30 24.48 C 124.23 33.09 124.19 41.70 124.32 50.31 C 122.73 50.29 121.14 50.29 119.55 50.30 C 119.68 49.41 119.94 47.64 120.07 46.76 C 118.34 48.51 116.62 50.81 113.90 50.89 C 109.91 51.40 106.58 47.86 106.17 44.09 C 105.29 37.59 105.99 31.01 105.70 24.48 Z" />
</g>
</svg>
